<svg xmlns="http://www.w3.org/2000/svg" id="emoji" viewBox="0 0 72 72"><g id="color"><polygon fill="#fff" points="46.684 24.074 53.64 17.146 54.808 18.396 47.989 25.134 46.684 24.074"/><polygon fill="#fff" points="16.617 54.208 23.572 47.28 24.74 48.529 17.921 55.268 16.617 54.208"/><polygon fill="#3f3f3f" points="46.423 23.785 47.976 25.403 25.435 48.36 23.708 46.785 46.423 23.785"/><circle cx="47.575" cy="10.958" r="2" fill="#fcea2b"/><circle cx="56" cy="28.31" r="2" fill="#fcea2b"/></g><g id="line"><rect width="53.525" height="3.385" x="9.193" y="34.347" fill="none" stroke="#000" stroke-miterlimit="10" stroke-width="2" rx=".44" ry=".44" transform="translate(-14.9528 36.0426) rotate(-45.0701)"/><line x1="45.881" x2="47.635" y1="24.448" y2="26.085" fill="none" stroke="#000" stroke-miterlimit="10" stroke-width="2"/><line x1="23.441" x2="25.838" y1="46.194" y2="48.584" fill="none" stroke="#000" stroke-miterlimit="10" stroke-width="2"/><line x1="47.575" x2="47.575" y1="8.958" y2="7.293" fill="none" stroke="#000" stroke-linecap="round" stroke-miterlimit="10" stroke-width="2"/><line x1="47.575" x2="47.575" y1="14.624" y2="12.958" fill="none" stroke="#000" stroke-linecap="round" stroke-miterlimit="10" stroke-width="2"/><line x1="45.575" x2="43.91" y1="10.958" y2="10.958" fill="none" stroke="#000" stroke-linecap="round" stroke-miterlimit="10" stroke-width="2"/><line x1="51.24" x2="49.575" y1="10.958" y2="10.958" fill="none" stroke="#000" stroke-linecap="round" stroke-miterlimit="10" stroke-width="2"/><line x1="56" x2="56" y1="26.31" y2="24.645" fill="none" stroke="#000" stroke-linecap="round" stroke-miterlimit="10" stroke-width="2"/><line x1="56" x2="56" y1="31.976" y2="30.31" fill="none" stroke="#000" stroke-linecap="round" stroke-miterlimit="10" stroke-width="2"/><line x1="54" x2="52.335" y1="28.31" y2="28.31" fill="none" stroke="#000" stroke-linecap="round" stroke-miterlimit="10" stroke-width="2"/><line x1="59.665" x2="58" y1="28.31" y2="28.31" fill="none" stroke="#000" stroke-linecap="round" stroke-miterlimit="10" stroke-width="2"/></g></svg>