<svg xmlns="http://www.w3.org/2000/svg" id="emoji" viewBox="0 0 72 72"><g id="line-supplement"><line x1="35.9" x2="35.9" y1="14.713" y2="57.168" fill="none" stroke="#000" stroke-linecap="round" stroke-linejoin="round" stroke-width="2.025"/><line x1="14.721" x2="57.283" y1="35.958" y2="35.958" fill="none" stroke="#000" stroke-linecap="round" stroke-linejoin="round" stroke-width="2.025"/></g><g id="color"><rect width="42.775" height="42.775" x="14.513" y="14.613" fill="#92d3f5" rx=".784"/><polygon fill="#fff" points="14.535 26.666 26.588 14.613 55.23 14.613 14.514 55.477 14.535 26.666"/><path fill="#a57939" d="M60.94,62H11.0176a1.06,1.06,0,0,1-1.06-1.06V11.0179a1.06,1.06,0,0,1,1.06-1.06H60.94a1.06,1.06,0,0,1,1.06,1.06V60.94A1.06,1.06,0,0,1,60.94,62ZM16.5733,56.3877H55.228a1.06,1.06,0,0,0,1.06-1.06V16.6722a1.06,1.06,0,0,0-1.06-1.06H16.5733a1.06,1.06,0,0,0-1.06,1.06V55.3278A1.06,1.06,0,0,0,16.5733,56.3877Z"/><line x1="35.9" x2="35.9" y1="14.613" y2="57.387" fill="none" stroke="#a57939" stroke-linecap="round" stroke-linejoin="round" stroke-width="2.025"/><line x1="14.513" x2="57.288" y1="35.958" y2="35.958" fill="none" stroke="#a57939" stroke-linecap="round" stroke-linejoin="round" stroke-width="2.025"/></g><g id="line"><line x1="61" x2="10.958" y1="61" y2="61" fill="none" stroke="#000" stroke-linecap="round" stroke-linejoin="round" stroke-width="2"/><polyline fill="none" stroke="#000" stroke-linecap="round" stroke-linejoin="round" stroke-width="2" points="10.958 57.168 10.958 10.958 61 10.958 61 57.168"/></g></svg>